<svg width="600" height="600" viewBox="0 0 600 600" fill="none" xmlns="http://www.w3.org/2000/svg">
  <!-- Background Circle -->
  <circle cx="300" cy="300" r="280" fill="url(#gradient1)" opacity="0.1"/>
  
  <!-- Main People Group -->
  <!-- Person 1 - Left -->
  <g transform="translate(120, 200)">
    <circle cx="40" cy="40" r="35" fill="url(#gradient2)"/>
    <rect x="15" y="75" width="50" height="80" rx="25" fill="url(#gradient3)"/>
    <rect x="25" y="85" width="30" height="60" rx="15" fill="url(#gradient4)"/>
    <circle cx="30" cy="35" r="3" fill="#3B82F6"/>
    <circle cx="50" cy="35" r="3" fill="#3B82F6"/>
    <path d="M25 50 Q40 60 55 50" stroke="#3B82F6" stroke-width="2" fill="none"/>
  </g>
  
  <!-- Person 2 - Center -->
  <g transform="translate(250, 180)">
    <circle cx="40" cy="40" r="35" fill="url(#gradient5)"/>
    <rect x="15" y="75" width="50" height="80" rx="25" fill="url(#gradient6)"/>
    <rect x="25" y="85" width="30" height="60" rx="15" fill="url(#gradient7)"/>
    <circle cx="30" cy="35" r="3" fill="#8B5CF6"/>
    <circle cx="50" cy="35" r="3" fill="#8B5CF6"/>
    <path d="M25 50 Q40 60 55 50" stroke="#8B5CF6" stroke-width="2" fill="none"/>
  </g>
  
  <!-- Person 3 - Right -->
  <g transform="translate(380, 200)">
    <circle cx="40" cy="40" r="35" fill="url(#gradient8)"/>
    <rect x="15" y="75" width="50" height="80" rx="25" fill="url(#gradient9)"/>
    <rect x="25" y="85" width="30" height="60" rx="15" fill="url(#gradient10)"/>
    <circle cx="30" cy="35" r="3" fill="#06B6D4"/>
    <circle cx="50" cy="35" r="3" fill="#06B6D4"/>
    <path d="M25 50 Q40 60 55 50" stroke="#06B6D4" stroke-width="2" fill="none"/>
  </g>
  
  <!-- Connection Lines -->
  <path d="M200 240 Q300 200 400 240" stroke="url(#gradient11)" stroke-width="3" fill="none" opacity="0.6"/>
  <path d="M200 280 Q300 240 400 280" stroke="url(#gradient12)" stroke-width="2" fill="none" opacity="0.4"/>
  
  <!-- Floating Elements -->
  <!-- Briefcase -->
  <g transform="translate(80, 120)">
    <rect x="0" y="0" width="40" height="25" rx="4" fill="url(#gradient13)"/>
    <rect x="5" y="5" width="30" height="15" rx="2" fill="url(#gradient14)"/>
    <rect x="15" y="25" width="10" height="8" rx="2" fill="url(#gradient15)"/>
    <circle cx="20" cy="35" r="2" fill="url(#gradient16)"/>
  </g>
  
  <!-- Laptop -->
  <g transform="translate(480, 100)">
    <rect x="0" y="0" width="50" height="30" rx="4" fill="url(#gradient17)"/>
    <rect x="5" y="5" width="40" height="20" rx="2" fill="url(#gradient18)"/>
    <rect x="20" y="30" width="10" height="5" rx="2" fill="url(#gradient19)"/>
    <circle cx="25" cy="40" r="3" fill="url(#gradient20)"/>
  </g>
  
  <!-- Document -->
  <g transform="translate(150, 400)">
    <rect x="0" y="0" width="30" height="40" rx="2" fill="url(#gradient21)"/>
    <rect x="5" y="5" width="20" height="30" rx="1" fill="url(#gradient22)"/>
    <circle cx="15" cy="15" r="1" fill="url(#gradient23)"/>
    <circle cx="15" cy="20" r="1" fill="url(#gradient24)"/>
    <circle cx="15" cy="25" r="1" fill="url(#gradient25)"/>
  </g>
  
  <!-- Chart -->
  <g transform="translate(420, 380)">
    <rect x="0" y="0" width="40" height="30" rx="2" fill="url(#gradient26)"/>
    <rect x="5" y="5" width="30" height="20" rx="1" fill="url(#gradient27)"/>
    <rect x="8" y="15" width="4" height="10" fill="url(#gradient28)"/>
    <rect x="14" y="10" width="4" height="15" fill="url(#gradient29)"/>
    <rect x="20" y="8" width="4" height="17" fill="url(#gradient30)"/>
    <rect x="26" y="12" width="4" height="13" fill="url(#gradient31)"/>
  </g>
  
  <!-- Decorative Elements -->
  <circle cx="100" cy="100" r="8" fill="url(#gradient32)" opacity="0.6"/>
  <circle cx="500" cy="150" r="6" fill="url(#gradient33)" opacity="0.6"/>
  <circle cx="150" cy="500" r="10" fill="url(#gradient34)" opacity="0.6"/>
  <circle cx="450" cy="450" r="7" fill="url(#gradient35)" opacity="0.6"/>
  
  <!-- Gradients -->
  <defs>
    <linearGradient id="gradient1" x1="0%" y1="0%" x2="100%" y2="100%">
      <stop offset="0%" style="stop-color:#3B82F6;stop-opacity:1" />
      <stop offset="100%" style="stop-color:#8B5CF6;stop-opacity:1" />
    </linearGradient>
    
    <linearGradient id="gradient2" x1="0%" y1="0%" x2="100%" y2="100%">
      <stop offset="0%" style="stop-color:#3B82F6;stop-opacity:1" />
      <stop offset="100%" style="stop-color:#1D4ED8;stop-opacity:1" />
    </linearGradient>
    
    <linearGradient id="gradient3" x1="0%" y1="0%" x2="100%" y2="100%">
      <stop offset="0%" style="stop-color:#60A5FA;stop-opacity:1" />
      <stop offset="100%" style="stop-color:#3B82F6;stop-opacity:1" />
    </linearGradient>
    
    <linearGradient id="gradient4" x1="0%" y1="0%" x2="100%" y2="100%">
      <stop offset="0%" style="stop-color:#93C5FD;stop-opacity:1" />
      <stop offset="100%" style="stop-color:#60A5FA;stop-opacity:1" />
    </linearGradient>
    
    <linearGradient id="gradient5" x1="0%" y1="0%" x2="100%" y2="100%">
      <stop offset="0%" style="stop-color:#8B5CF6;stop-opacity:1" />
      <stop offset="100%" style="stop-color:#7C3AED;stop-opacity:1" />
    </linearGradient>
    
    <linearGradient id="gradient6" x1="0%" y1="0%" x2="100%" y2="100%">
      <stop offset="0%" style="stop-color:#A78BFA;stop-opacity:1" />
      <stop offset="100%" style="stop-color:#8B5CF6;stop-opacity:1" />
    </linearGradient>
    
    <linearGradient id="gradient7" x1="0%" y1="0%" x2="100%" y2="100%">
      <stop offset="0%" style="stop-color:#C4B5FD;stop-opacity:1" />
      <stop offset="100%" style="stop-color:#A78BFA;stop-opacity:1" />
    </linearGradient>
    
    <linearGradient id="gradient8" x1="0%" y1="0%" x2="100%" y2="100%">
      <stop offset="0%" style="stop-color:#06B6D4;stop-opacity:1" />
      <stop offset="100%" style="stop-color:#0891B2;stop-opacity:1" />
    </linearGradient>
    
    <linearGradient id="gradient9" x1="0%" y1="0%" x2="100%" y2="100%">
      <stop offset="0%" style="stop-color:#22D3EE;stop-opacity:1" />
      <stop offset="100%" style="stop-color:#06B6D4;stop-opacity:1" />
    </linearGradient>
    
    <linearGradient id="gradient10" x1="0%" y1="0%" x2="100%" y2="100%">
      <stop offset="0%" style="stop-color:#67E8F9;stop-opacity:1" />
      <stop offset="100%" style="stop-color:#22D3EE;stop-opacity:1" />
    </linearGradient>
    
    <linearGradient id="gradient11" x1="0%" y1="0%" x2="100%" y2="100%">
      <stop offset="0%" style="stop-color:#3B82F6;stop-opacity:1" />
      <stop offset="50%" style="stop-color:#8B5CF6;stop-opacity:1" />
      <stop offset="100%" style="stop-color:#06B6D4;stop-opacity:1" />
    </linearGradient>
    
    <linearGradient id="gradient12" x1="0%" y1="0%" x2="100%" y2="100%">
      <stop offset="0%" style="stop-color:#60A5FA;stop-opacity:1" />
      <stop offset="50%" style="stop-color:#A78BFA;stop-opacity:1" />
      <stop offset="100%" style="stop-color:#22D3EE;stop-opacity:1" />
    </linearGradient>
    
    <linearGradient id="gradient13" x1="0%" y1="0%" x2="100%" y2="100%">
      <stop offset="0%" style="stop-color:#F59E0B;stop-opacity:1" />
      <stop offset="100%" style="stop-color:#D97706;stop-opacity:1" />
    </linearGradient>
    
    <linearGradient id="gradient14" x1="0%" y1="0%" x2="100%" y2="100%">
      <stop offset="0%" style="stop-color:#FBBF24;stop-opacity:1" />
      <stop offset="100%" style="stop-color:#F59E0B;stop-opacity:1" />
    </linearGradient>
    
    <linearGradient id="gradient15" x1="0%" y1="0%" x2="100%" y2="100%">
      <stop offset="0%" style="stop-color:#FCD34D;stop-opacity:1" />
      <stop offset="100%" style="stop-color:#FBBF24;stop-opacity:1" />
    </linearGradient>
    
    <linearGradient id="gradient16" x1="0%" y1="0%" x2="100%" y2="100%">
      <stop offset="0%" style="stop-color:#FDE68A;stop-opacity:1" />
      <stop offset="100%" style="stop-color:#FCD34D;stop-opacity:1" />
    </linearGradient>
    
    <linearGradient id="gradient17" x1="0%" y1="0%" x2="100%" y2="100%">
      <stop offset="0%" style="stop-color:#10B981;stop-opacity:1" />
      <stop offset="100%" style="stop-color:#059669;stop-opacity:1" />
    </linearGradient>
    
    <linearGradient id="gradient18" x1="0%" y1="0%" x2="100%" y2="100%">
      <stop offset="0%" style="stop-color:#34D399;stop-opacity:1" />
      <stop offset="100%" style="stop-color:#10B981;stop-opacity:1" />
    </linearGradient>
    
    <linearGradient id="gradient19" x1="0%" y1="0%" x2="100%" y2="100%">
      <stop offset="0%" style="stop-color:#6EE7B7;stop-opacity:1" />
      <stop offset="100%" style="stop-color:#34D399;stop-opacity:1" />
    </linearGradient>
    
    <linearGradient id="gradient20" x1="0%" y1="0%" x2="100%" y2="100%">
      <stop offset="0%" style="stop-color:#A7F3D0;stop-opacity:1" />
      <stop offset="100%" style="stop-color:#6EE7B7;stop-opacity:1" />
    </linearGradient>
    
    <linearGradient id="gradient21" x1="0%" y1="0%" x2="100%" y2="100%">
      <stop offset="0%" style="stop-color:#EF4444;stop-opacity:1" />
      <stop offset="100%" style="stop-color:#DC2626;stop-opacity:1" />
    </linearGradient>
    
    <linearGradient id="gradient22" x1="0%" y1="0%" x2="100%" y2="100%">
      <stop offset="0%" style="stop-color:#F87171;stop-opacity:1" />
      <stop offset="100%" style="stop-color:#EF4444;stop-opacity:1" />
    </linearGradient>
    
    <linearGradient id="gradient23" x1="0%" y1="0%" x2="100%" y2="100%">
      <stop offset="0%" style="stop-color:#FCA5A5;stop-opacity:1" />
      <stop offset="100%" style="stop-color:#F87171;stop-opacity:1" />
    </linearGradient>
    
    <linearGradient id="gradient24" x1="0%" y1="0%" x2="100%" y2="100%">
      <stop offset="0%" style="stop-color:#FCA5A5;stop-opacity:1" />
      <stop offset="100%" style="stop-color:#F87171;stop-opacity:1" />
    </linearGradient>
    
    <linearGradient id="gradient25" x1="0%" y1="0%" x2="100%" y2="100%">
      <stop offset="0%" style="stop-color:#FCA5A5;stop-opacity:1" />
      <stop offset="100%" style="stop-color:#F87171;stop-opacity:1" />
    </linearGradient>
    
    <linearGradient id="gradient26" x1="0%" y1="0%" x2="100%" y2="100%">
      <stop offset="0%" style="stop-color:#8B5CF6;stop-opacity:1" />
      <stop offset="100%" style="stop-color:#7C3AED;stop-opacity:1" />
    </linearGradient>
    
    <linearGradient id="gradient27" x1="0%" y1="0%" x2="100%" y2="100%">
      <stop offset="0%" style="stop-color:#A78BFA;stop-opacity:1" />
      <stop offset="100%" style="stop-color:#8B5CF6;stop-opacity:1" />
    </linearGradient>
    
    <linearGradient id="gradient28" x1="0%" y1="0%" x2="100%" y2="100%">
      <stop offset="0%" style="stop-color:#3B82F6;stop-opacity:1" />
      <stop offset="100%" style="stop-color:#1D4ED8;stop-opacity:1" />
    </linearGradient>
    
    <linearGradient id="gradient29" x1="0%" y1="0%" x2="100%" y2="100%">
      <stop offset="0%" style="stop-color:#06B6D4;stop-opacity:1" />
      <stop offset="100%" style="stop-color:#0891B2;stop-opacity:1" />
    </linearGradient>
    
    <linearGradient id="gradient30" x1="0%" y1="0%" x2="100%" y2="100%">
      <stop offset="0%" style="stop-color:#10B981;stop-opacity:1" />
      <stop offset="100%" style="stop-color:#059669;stop-opacity:1" />
    </linearGradient>
    
    <linearGradient id="gradient31" x1="0%" y1="0%" x2="100%" y2="100%">
      <stop offset="0%" style="stop-color:#F59E0B;stop-opacity:1" />
      <stop offset="100%" style="stop-color:#D97706;stop-opacity:1" />
    </linearGradient>
    
    <linearGradient id="gradient32" x1="0%" y1="0%" x2="100%" y2="100%">
      <stop offset="0%" style="stop-color:#3B82F6;stop-opacity:1" />
      <stop offset="100%" style="stop-color:#8B5CF6;stop-opacity:1" />
    </linearGradient>
    
    <linearGradient id="gradient33" x1="0%" y1="0%" x2="100%" y2="100%">
      <stop offset="0%" style="stop-color:#8B5CF6;stop-opacity:1" />
      <stop offset="100%" style="stop-color:#06B6D4;stop-opacity:1" />
    </linearGradient>
    
    <linearGradient id="gradient34" x1="0%" y1="0%" x2="100%" y2="100%">
      <stop offset="0%" style="stop-color:#06B6D4;stop-opacity:1" />
      <stop offset="100%" style="stop-color:#3B82F6;stop-opacity:1" />
    </linearGradient>
    
    <linearGradient id="gradient35" x1="0%" y1="0%" x2="100%" y2="100%">
      <stop offset="0%" style="stop-color:#10B981;stop-opacity:1" />
      <stop offset="100%" style="stop-color:#8B5CF6;stop-opacity:1" />
    </linearGradient>
  </defs>
</svg>
